<?xml version="1.0" encoding="UTF-8" standalone="no"?>
<svg
   xmlns:dc="http://purl.org/dc/elements/1.1/"
   xmlns:cc="http://creativecommons.org/ns#"
   xmlns:rdf="http://www.w3.org/1999/02/22-rdf-syntax-ns#"
   xmlns:svg="http://www.w3.org/2000/svg"
   xmlns="http://www.w3.org/2000/svg"
   xmlns:sodipodi="http://sodipodi.sourceforge.net/DTD/sodipodi-0.dtd"
   xmlns:inkscape="http://www.inkscape.org/namespaces/inkscape"
   width="128"
   height="128"
   viewBox="0 0 8 8"
   version="1"
   id="svg2"
   inkscape:version="0.48.4 r9939"
   sodipodi:docname="haxe.svg"
   inkscape:export-filename="C:\Users\Jens\.vscode\extensions\vshaxe\resources\haxe.png"
   inkscape:export-xdpi="16.875"
   inkscape:export-ydpi="16.875">
  <metadata
     id="metadata26">
    <rdf:RDF>
      <cc:Work
         rdf:about="">
        <dc:format>image/svg+xml</dc:format>
        <dc:type
           rdf:resource="http://purl.org/dc/dcmitype/StillImage" />
        <dc:title />
      </cc:Work>
    </rdf:RDF>
  </metadata>
  <defs
     id="defs24" />
  <sodipodi:namedview
     pagecolor="#ffffff"
     bordercolor="#666666"
     borderopacity="1"
     objecttolerance="10"
     gridtolerance="10"
     guidetolerance="10"
     inkscape:pageopacity="0"
     inkscape:pageshadow="2"
     inkscape:window-width="1359"
     inkscape:window-height="751"
     id="namedview22"
     showgrid="false"
     inkscape:zoom="3.8694184"
     inkscape:cx="29.21925"
     inkscape:cy="64.16748"
     inkscape:window-x="2208"
     inkscape:window-y="149"
     inkscape:window-maximized="0"
     inkscape:current-layer="svg2" />
  <path
     d="m 1.4687499,1.46875 h 5.0625002 v 5.0625 H 1.4687499 z"
     id="path4"
     style="fill:#c5c5c5;fill-opacity:1"
     inkscape:connector-curvature="0" />
  <path
     d="M 0.625,0.625 H 2.3125 L 4,1.46875 1.4687499,4 0.625,2.3125 z"
     id="path6"
     style="fill:#c5c5c5;fill-opacity:1"
     inkscape:connector-curvature="0" />
  <path
     d="M 1.4687499,4 4,6.53125 2.3125,7.375 H 0.625 V 5.6875 z"
     id="path8"
     style="fill:#c5c5c5;fill-opacity:1"
     inkscape:connector-curvature="0" />
  <path
     d="M 4,1.46875 5.6875,0.625 H 7.375 V 2.3125 L 6.5312501,4 z"
     id="path10"
     style="fill:#c5c5c5;fill-opacity:1"
     inkscape:connector-curvature="0" />
  <path
     d="M 6.5312501,4 7.375,5.6875 V 7.375 H 5.6875 L 4,6.53125 z"
     id="path12"
     style="fill:#c5c5c5;fill-opacity:1"
     inkscape:connector-curvature="0" />
  <path
     d="M 0.625,0.625 1.4687499,4 0.625,7.375 V 5.6875 L 1.4687499,4 0.625,2.3125 z"
     id="path14"
     style="fill:#c5c5c5;fill-opacity:1"
     inkscape:connector-curvature="0" />
  <path
     d="M 0.625,0.625 4,1.46875 7.375,0.625 H 5.6875 L 4,1.46875 2.3125,0.625 z"
     id="path16"
     style="fill:#c5c5c5;fill-opacity:1"
     inkscape:connector-curvature="0" />
  <path
     d="M 7.375,0.625 V 2.3125 L 6.5312501,4 7.375,5.6875 V 7.375 L 6.5312501,4 z"
     id="path18"
     style="fill:#c5c5c5;fill-opacity:1"
     inkscape:connector-curvature="0" />
  <path
     d="M 0.625,7.375 H 2.3125 L 4,6.53125 5.6875,7.375 H 7.375 L 4,6.53125 z"
     id="path20"
     style="fill:#c5c5c5;fill-opacity:1"
     inkscape:connector-curvature="0" />
</svg>
